<svg xmlns="http://www.w3.org/2000/svg" xmlns:xlink="http://www.w3.org/1999/xlink" width="500" zoomAndPan="magnify" viewBox="0 0 375 374.999991" height="500" preserveAspectRatio="xMidYMid meet" version="1.0"><defs><clipPath id="d2779c6ed8"><path d="M 193 165 L 327 165 L 327 319.660156 L 193 319.660156 Z M 193 165 " clip-rule="nonzero"/></clipPath><clipPath id="115d87e223"><path d="M 48 165 L 182 165 L 182 319.660156 L 48 319.660156 Z M 48 165 " clip-rule="nonzero"/></clipPath></defs><g clip-path="url(#d2779c6ed8)"><path fill="#ffffff" d="M 322.851562 169.578125 C 320.015625 166.742188 316.121094 165.488281 312.226562 166.148438 C 308.269531 166.808594 304.96875 169.183594 303.1875 172.746094 L 285.167969 208.78125 C 284.113281 210.957031 282.660156 212.871094 280.683594 214.917969 C 280.351562 215.3125 280.089844 215.710938 279.757812 216.105469 C 271.3125 209.375 259.300781 208.1875 249.203125 213.863281 C 242.140625 219.800781 232.242188 225.28125 219.4375 230.296875 C 211.453125 234.714844 206.042969 242.769531 204.921875 251.808594 L 200.5 287.183594 L 193.765625 287.183594 L 193.765625 319.058594 L 270.253906 319.058594 L 270.253906 287.183594 L 267.746094 287.183594 L 304.109375 245.671875 C 306.816406 242.570312 308.796875 239.007812 309.984375 235.046875 L 325.953125 181.789062 C 327.207031 177.433594 326.019531 172.746094 322.851562 169.578125 Z M 263.855469 312.65625 L 200.101562 312.65625 L 200.101562 293.519531 L 263.855469 293.519531 Z M 319.816406 179.941406 L 303.847656 233.132812 C 302.921875 236.234375 301.40625 239.007812 299.292969 241.382812 L 259.300781 287.117188 L 207.03125 287.117188 L 211.320312 252.535156 C 212.179688 245.472656 216.402344 239.269531 222.210938 235.96875 C 235.277344 230.890625 245.769531 225.015625 252.898438 218.945312 C 260.289062 214.851562 269.464844 215.777344 275.929688 220.988281 C 266.097656 233.265625 256.332031 242.570312 246.234375 249.367188 L 243.59375 251.148438 L 247.15625 256.429688 L 249.796875 254.648438 C 262.203125 246.398438 274.015625 234.585938 285.566406 218.945312 C 287.742188 216.765625 289.527344 214.257812 290.910156 211.488281 L 308.929688 175.453125 C 309.785156 173.738281 311.371094 172.550781 313.285156 172.285156 C 315.199219 172.023438 317.046875 172.617188 318.367188 173.933594 C 319.882812 175.585938 320.410156 177.828125 319.816406 179.941406 Z M 319.816406 179.941406 " fill-opacity="1" fill-rule="nonzero"/></g><g clip-path="url(#115d87e223)"><path fill="#ffffff" d="M 169.941406 251.808594 C 168.820312 242.769531 163.410156 234.714844 155.027344 230.097656 C 142.554688 225.214844 132.722656 219.734375 125.132812 213.464844 C 115.496094 208.121094 103.550781 209.308594 95.105469 216.105469 C 94.707031 215.578125 94.3125 215.117188 93.917969 214.589844 C 92.199219 212.871094 90.816406 210.957031 89.757812 208.78125 L 71.742188 172.746094 C 69.960938 169.183594 66.660156 166.742188 62.765625 166.148438 C 58.808594 165.488281 54.914062 166.742188 52.140625 169.578125 C 48.972656 172.746094 47.785156 177.433594 49.039062 181.789062 L 64.945312 234.980469 C 66.132812 238.941406 68.113281 242.503906 70.820312 245.605469 L 107.183594 287.183594 L 104.542969 287.183594 L 104.542969 319.058594 L 181.03125 319.058594 L 181.03125 287.183594 L 174.363281 287.183594 Z M 75.636719 241.449219 C 73.523438 239.007812 72.007812 236.234375 71.082031 233.199219 L 55.046875 179.941406 C 54.453125 177.828125 54.980469 175.585938 56.496094 174.066406 C 57.882812 172.679688 59.730469 172.085938 61.644531 172.417969 C 63.558594 172.746094 65.144531 173.871094 66 175.585938 L 84.019531 211.617188 C 85.402344 214.390625 87.1875 216.898438 89.097656 218.746094 C 100.976562 234.714844 112.792969 246.53125 125.199219 254.777344 L 127.839844 256.5625 L 131.402344 251.28125 L 128.761719 249.5 C 118.664062 242.769531 108.964844 233.527344 99.066406 221.121094 C 105.53125 215.90625 114.640625 214.917969 121.636719 218.679688 C 129.222656 225.082031 139.71875 230.953125 152.453125 235.839844 C 158.65625 239.269531 162.882812 245.539062 163.738281 252.601562 L 168.027344 287.183594 L 115.761719 287.183594 Z M 174.628906 312.65625 L 110.945312 312.65625 L 110.945312 293.519531 L 174.695312 293.519531 L 174.695312 312.65625 Z M 174.628906 312.65625 " fill-opacity="1" fill-rule="nonzero"/></g><path fill="#ffffff" d="M 267.945312 159.019531 C 290.183594 136.78125 290.183594 100.484375 267.945312 78.242188 C 245.769531 56.070312 209.671875 56.003906 187.429688 77.980469 C 165.125 55.9375 129.09375 56.003906 106.917969 78.242188 C 84.679688 100.484375 84.679688 136.78125 106.917969 159.019531 L 177.136719 229.304688 C 179.972656 232.144531 183.667969 233.527344 187.429688 233.527344 C 191.191406 233.527344 194.890625 232.144531 197.726562 229.304688 Z M 181.625 224.816406 L 111.339844 154.53125 C 101.769531 144.964844 96.492188 132.226562 96.492188 118.632812 C 96.492188 105.035156 101.769531 92.300781 111.339844 82.730469 C 121.238281 72.832031 134.238281 67.882812 147.242188 67.882812 C 160.242188 67.882812 173.242188 72.832031 183.140625 82.730469 C 185.519531 85.105469 189.34375 85.105469 191.65625 82.730469 C 211.453125 62.933594 243.660156 62.933594 263.457031 82.730469 C 273.027344 92.300781 278.304688 105.035156 278.304688 118.632812 C 278.304688 132.226562 273.027344 144.964844 263.457031 154.53125 L 193.171875 224.816406 C 190.070312 227.851562 184.726562 227.851562 181.625 224.816406 Z M 181.625 224.816406 " fill-opacity="1" fill-rule="nonzero"/><path fill="#ffffff" d="M 200.167969 108.734375 L 174.695312 108.734375 L 174.695312 127.871094 L 155.554688 127.871094 L 155.554688 153.34375 L 174.695312 153.34375 L 174.695312 172.484375 L 200.167969 172.484375 L 200.167969 153.34375 L 219.308594 153.34375 L 219.308594 127.871094 L 200.167969 127.871094 Z M 212.90625 134.207031 L 212.90625 146.945312 L 193.765625 146.945312 L 193.765625 166.082031 L 181.03125 166.082031 L 181.03125 146.945312 L 161.890625 146.945312 L 161.890625 134.207031 L 181.03125 134.207031 L 181.03125 115.066406 L 193.765625 115.066406 L 193.765625 134.207031 Z M 212.90625 134.207031 " fill-opacity="1" fill-rule="nonzero"/></svg>