<svg xmlns="http://www.w3.org/2000/svg" xmlns:xlink="http://www.w3.org/1999/xlink" width="500" zoomAndPan="magnify" viewBox="0 0 375 374.999991" height="500" preserveAspectRatio="xMidYMid meet" version="1.0"><defs><clipPath id="009817567a"><path d="M 51.585938 51.585938 L 323 51.585938 L 323 323 L 51.585938 323 Z M 51.585938 51.585938 " clip-rule="nonzero"/></clipPath></defs><g clip-path="url(#009817567a)"><path fill="#ffffff" d="M 200.257812 322.078125 L 173.40625 322.078125 C 151.023438 322.078125 132.878906 303.9375 132.878906 281.550781 L 132.878906 254.089844 C 132.878906 246.75 126.929688 240.785156 119.574219 240.785156 L 92.113281 240.785156 C 69.726562 240.785156 51.585938 222.644531 51.585938 200.257812 L 51.585938 173.40625 C 51.585938 151.023438 69.726562 132.878906 92.113281 132.878906 L 107.863281 132.878906 C 113.644531 132.878906 118.332031 137.566406 118.332031 143.351562 C 118.332031 149.132812 113.644531 153.820312 107.863281 153.820312 L 92.113281 153.820312 C 81.289062 153.820312 72.507812 162.601562 72.507812 173.425781 L 72.507812 200.277344 C 72.507812 211.097656 81.289062 219.882812 92.113281 219.882812 L 119.574219 219.882812 C 138.476562 219.882812 153.820312 235.207031 153.820312 254.125 L 153.820312 281.589844 C 153.820312 292.414062 162.601562 301.195312 173.425781 301.195312 L 200.277344 301.195312 C 211.097656 301.195312 219.882812 292.414062 219.882812 281.589844 L 219.882812 261.28125 C 219.882812 244.140625 213.210938 228.015625 201.089844 215.898438 L 157.839844 172.628906 C 141.773438 156.542969 132.917969 135.179688 132.917969 112.441406 L 132.917969 92.113281 C 132.917969 69.726562 151.058594 51.585938 173.445312 51.585938 L 200.292969 51.585938 C 222.679688 51.585938 240.820312 69.726562 240.820312 92.113281 L 240.820312 119.574219 C 240.820312 126.914062 246.769531 132.878906 254.125 132.878906 L 281.589844 132.878906 C 303.972656 132.878906 322.117188 151.023438 322.117188 173.40625 L 322.117188 200.257812 C 322.117188 222.644531 303.972656 240.785156 281.589844 240.785156 L 265.859375 240.785156 C 260.074219 240.785156 255.386719 236.097656 255.386719 230.316406 C 255.386719 224.53125 260.074219 219.84375 265.859375 219.84375 L 281.589844 219.84375 C 292.414062 219.84375 301.195312 211.0625 301.195312 200.238281 L 301.195312 173.386719 C 301.195312 162.566406 292.414062 153.78125 281.589844 153.78125 L 254.089844 153.78125 C 235.1875 153.78125 219.863281 138.457031 219.863281 119.554688 L 219.863281 92.113281 C 219.863281 81.289062 211.078125 72.507812 200.257812 72.507812 L 173.40625 72.507812 C 162.585938 72.507812 153.800781 81.273438 153.800781 92.113281 L 153.800781 112.421875 C 153.800781 129.5625 160.472656 145.683594 172.589844 157.804688 L 215.84375 201.054688 C 231.925781 217.121094 240.765625 238.503906 240.765625 261.242188 L 240.765625 281.550781 C 240.785156 303.917969 222.644531 322.078125 200.257812 322.078125 Z M 200.257812 322.078125 " fill-opacity="1" fill-rule="nonzero"/></g></svg>