<svg xmlns="http://www.w3.org/2000/svg" xmlns:xlink="http://www.w3.org/1999/xlink" width="500" zoomAndPan="magnify" viewBox="0 0 375 374.999991" height="500" preserveAspectRatio="xMidYMid meet" version="1.0"><defs><clipPath id="08f67ddfec"><path d="M 106.121094 71.246094 L 268.871094 71.246094 L 268.871094 303.746094 L 106.121094 303.746094 Z M 106.121094 71.246094 " clip-rule="nonzero"/></clipPath></defs><g clip-path="url(#08f67ddfec)"><path fill="#ffffff" d="M 187.496094 71.246094 C 142.566406 71.246094 106.121094 107.691406 106.121094 152.621094 C 106.121094 213.652344 187.496094 303.746094 187.496094 303.746094 C 187.496094 303.746094 268.871094 213.652344 268.871094 152.621094 C 268.871094 107.691406 232.429688 71.246094 187.496094 71.246094 Z M 187.496094 181.683594 C 171.457031 181.683594 158.433594 168.664062 158.433594 152.621094 C 158.433594 136.578125 171.457031 123.558594 187.496094 123.558594 C 203.539062 123.558594 216.558594 136.578125 216.558594 152.621094 C 216.558594 168.664062 203.539062 181.683594 187.496094 181.683594 Z M 187.496094 181.683594 " fill-opacity="1" fill-rule="nonzero"/></g></svg>